<?xml version="1.0" encoding="UTF-8" standalone="no"?>
<!-- Created with Inkscape (http://www.inkscape.org/) -->

<svg
   width="594mm"
   height="841mm"
   viewBox="0 0 2245.0393 3178.5828"
   version="1.1"
   id="svg1"
   inkscape:version="1.4.3 (0d15f75, 2025-12-25)"
   sodipodi:docname="Penguin.svg"
   xmlns:inkscape="http://www.inkscape.org/namespaces/inkscape"
   xmlns:sodipodi="http://sodipodi.sourceforge.net/DTD/sodipodi-0.dtd"
   xmlns:xlink="http://www.w3.org/1999/xlink"
   xmlns="http://www.w3.org/2000/svg"
   xmlns:svg="http://www.w3.org/2000/svg">
  <sodipodi:namedview
     id="namedview1"
     pagecolor="#ffffff"
     bordercolor="#000000"
     borderopacity="0.25"
     inkscape:showpageshadow="2"
     inkscape:pageopacity="0.0"
     inkscape:pagecheckerboard="0"
     inkscape:deskcolor="#d1d1d1"
     inkscape:document-units="mm"
     inkscape:zoom="0.16"
     inkscape:cx="1681.25"
     inkscape:cy="965.625"
     inkscape:window-width="1920"
     inkscape:window-height="1046"
     inkscape:window-x="-11"
     inkscape:window-y="-11"
     inkscape:window-maximized="1"
     inkscape:current-layer="layer1" />
  <defs
     id="defs1">
    <linearGradient
       id="linearGradient1"
       inkscape:collect="always">
      <stop
         style="stop-color:#ff6600;stop-opacity:1;"
         offset="0"
         id="stop1" />
      <stop
         style="stop-color:#000000;stop-opacity:1"
         offset="1"
         id="stop4" />
    </linearGradient>
    <linearGradient
       id="linearGradient12"
       inkscape:collect="always">
      <stop
         style="stop-color:#f9f9f9;stop-opacity:1;"
         offset="0"
         id="stop12" />
      <stop
         style="stop-color:#000000;stop-opacity:1"
         offset="1"
         id="stop13" />
    </linearGradient>
    <linearGradient
       id="linearGradient9"
       inkscape:collect="always">
      <stop
         style="stop-color:#ff6600;stop-opacity:1;"
         offset="0"
         id="stop9" />
      <stop
         style="stop-color:#000000;stop-opacity:1"
         offset="1"
         id="stop10" />
    </linearGradient>
    <linearGradient
       id="linearGradient7"
       inkscape:collect="always">
      <stop
         style="stop-color:#f9f9f9;stop-opacity:1;"
         offset="0"
         id="stop7" />
      <stop
         style="stop-color:#000000;stop-opacity:1"
         offset="1"
         id="stop8" />
    </linearGradient>
    <linearGradient
       id="linearGradient2"
       inkscape:collect="always">
      <stop
         style="stop-color:#999999;stop-opacity:1;"
         offset="0"
         id="stop2" />
      <stop
         style="stop-color:#1a1a1a;stop-opacity:1"
         offset="1"
         id="stop3" />
    </linearGradient>
    <linearGradient
       inkscape:collect="always"
       xlink:href="#linearGradient2"
       id="linearGradient3"
       x1="858.65057"
       y1="1063.4663"
       x2="1114.6703"
       y2="1603.077"
       gradientUnits="userSpaceOnUse"
       gradientTransform="translate(-8.3853368,-7.743616e-5)" />
    <linearGradient
       inkscape:collect="always"
       xlink:href="#linearGradient7"
       id="linearGradient8"
       x1="1114.6703"
       y1="2150.5652"
       x2="1792.1377"
       y2="3036.7871"
       gradientUnits="userSpaceOnUse" />
    <linearGradient
       inkscape:collect="always"
       xlink:href="#linearGradient9"
       id="linearGradient10"
       x1="1599.1383"
       y1="2820.155"
       x2="1725.1787"
       y2="2997.3997"
       gradientUnits="userSpaceOnUse"
       gradientTransform="translate(-199.85366,66.958991)" />
    <linearGradient
       inkscape:collect="always"
       xlink:href="#linearGradient9"
       id="linearGradient11"
       gradientUnits="userSpaceOnUse"
       gradientTransform="translate(-743.40311,74.836519)"
       x1="1599.1383"
       y1="2820.155"
       x2="1725.1787"
       y2="2997.3997" />
    <linearGradient
       inkscape:collect="always"
       xlink:href="#linearGradient12"
       id="linearGradient13"
       x1="1315.5472"
       y1="1232.8333"
       x2="1358.8737"
       y2="1492.7916"
       gradientUnits="userSpaceOnUse"
       gradientTransform="translate(-101.32082)" />
    <linearGradient
       inkscape:collect="always"
       xlink:href="#linearGradient1"
       id="linearGradient4"
       x1="1104.8234"
       y1="1404.1694"
       x2="1222.0016"
       y2="1591.2607"
       gradientUnits="userSpaceOnUse" />
  </defs>
  <g
     inkscape:label="Layer 1"
     inkscape:groupmode="layer"
     id="layer1">
    <path
       style="fill:#1a1a1a;stroke:none;stroke-width:30.8613;stroke-dasharray:none"
       id="path3"
       sodipodi:type="arc"
       sodipodi:cx="1122.5197"
       sodipodi:cy="1897.3508"
       sodipodi:rx="850.39368"
       sodipodi:ry="774.80316"
       sodipodi:start="0"
       sodipodi:end="6.2312145"
       sodipodi:open="true"
       sodipodi:arc-type="arc"
       d="m 1972.9133,1897.3508 a 850.39368,774.80316 0 0 1 -839.345,774.7378 850.39368,774.80316 0 0 1 -861.15523,-754.6065 850.39368,774.80316 0 0 1 816.96823,-794.3459 850.39368,774.80316 0 0 1 882.3838,733.9656" />
    <path
       style="fill:url(#linearGradient3);fill-opacity:1;stroke:#999999;stroke-width:22.6772;stroke-dasharray:none"
       id="path1"
       sodipodi:type="arc"
       sodipodi:cx="1122.52"
       sodipodi:cy="1834.2043"
       sodipodi:rx="689.76379"
       sodipodi:ry="1058.2677"
       sodipodi:start="0"
       sodipodi:end="6.2312145"
       sodipodi:open="true"
       sodipodi:arc-type="arc"
       d="M 1812.2838,1834.2043 A 689.76379,1058.2677 0 0 1 1131.4817,2892.3827 689.76379,1058.2677 0 0 1 432.98909,1861.7008 689.76379,1058.2677 0 0 1 1095.6411,776.74045 689.76379,1058.2677 0 0 1 1811.3525,1779.2301" />
    <g
       id="g11"
       transform="translate(3.938766)">
      <path
         style="fill:url(#linearGradient10);fill-opacity:1;stroke:#ff6600;stroke-width:6;stroke-dasharray:none"
         id="path9"
         sodipodi:type="arc"
         sodipodi:cx="1390.356"
         sodipodi:cy="2892.8984"
         sodipodi:rx="213.8304"
         sodipodi:ry="98.553497"
         sodipodi:start="0"
         sodipodi:end="6.2312145"
         sodipodi:open="true"
         sodipodi:arc-type="arc"
         d="m 1604.1864,2892.8984 a 213.8304,98.553497 0 0 1 -211.0523,98.5452 213.8304,98.553497 0 0 1 -216.5364,-95.9845 213.8304,98.553497 0 0 1 205.4257,-101.0393 213.8304,98.553497 0 0 1 221.8742,93.359" />
      <path
         style="fill:url(#linearGradient11);fill-opacity:1;stroke:#ff6600;stroke-width:6;stroke-dasharray:none"
         id="path10"
         sodipodi:type="arc"
         sodipodi:cx="846.80652"
         sodipodi:cy="2900.7759"
         sodipodi:rx="213.8304"
         sodipodi:ry="98.553497"
         sodipodi:start="0"
         sodipodi:end="6.2312145"
         sodipodi:open="true"
         sodipodi:arc-type="arc"
         d="m 1060.6369,2900.7759 a 213.8304,98.553497 0 0 1 -211.05223,98.5452 213.8304,98.553497 0 0 1 -216.53636,-95.9846 213.8304,98.553497 0 0 1 205.42562,-101.0393 213.8304,98.553497 0 0 1 221.87427,93.3591" />
    </g>
    <path
       style="fill:url(#linearGradient8);stroke:#f9f9f9;stroke-width:22.6772;stroke-dasharray:none;fill-opacity:1"
       id="path4"
       sodipodi:type="arc"
       sodipodi:cx="1122.5199"
       sodipodi:cy="2146.0154"
       sodipodi:rx="566.92914"
       sodipodi:ry="746.45673"
       sodipodi:start="0"
       sodipodi:end="6.2312145"
       sodipodi:open="true"
       sodipodi:arc-type="arc"
       d="m 1689.449,2146.0154 a 566.92914,746.45673 0 0 1 -559.5634,746.3937 566.92914,746.45673 0 0 1 -574.10344,-726.9989 566.92914,746.45673 0 0 1 544.64554,-765.2846 566.92914,746.45673 0 0 1 588.2559,707.1133" />
    <path
       id="path11"
       style="fill:url(#linearGradient13);fill-opacity:1;stroke:#f9f9f9;stroke-width:22.6772;stroke-dasharray:none"
       d="m 959.73978,1021.5449 a 184.71252,184.71175 0 0 0 -177.45122,189.3692 184.71252,184.71175 0 0 0 187.05082,179.8984 184.71252,184.71175 0 0 0 153.09182,-85.668 184.71252,184.71175 0 0 0 158.0703,85.668 184.71252,184.71175 0 0 0 182.3125,-184.6973 l -0.25,-9.5957 a 184.71252,184.71175 0 0 0 -191.6602,-174.9746 184.71252,184.71175 0 0 0 -148.1894,85.4063 184.71252,184.71175 0 0 0 -162.97462,-85.4063 z" />
    <g
       id="g14"
       transform="translate(20.244022)">
      <path
         style="fill:#000000;stroke:none;stroke-width:21.7604;stroke-dasharray:none"
         id="path13"
         sodipodi:type="arc"
         sodipodi:cx="997.89832"
         sodipodi:cy="1246.0405"
         sodipodi:rx="60.472443"
         sodipodi:ry="60.472443"
         sodipodi:start="0"
         sodipodi:end="6.2312145"
         sodipodi:open="true"
         sodipodi:arc-type="arc"
         d="m 1058.3708,1246.0405 a 60.472443,60.472443 0 0 1 -59.68681,60.4674 60.472443,60.472443 0 0 1 -61.2377,-58.8961 60.472443,60.472443 0 0 1 58.09552,-61.9978 60.472443,60.472443 0 0 1 62.74729,57.2851" />
      <path
         style="fill:#000000;stroke:none;stroke-width:21.7604;stroke-dasharray:none"
         id="path14"
         sodipodi:type="arc"
         sodipodi:cx="1206.6528"
         sodipodi:cy="1246.0405"
         sodipodi:rx="60.472443"
         sodipodi:ry="60.472443"
         sodipodi:start="0"
         sodipodi:end="6.2312145"
         sodipodi:open="true"
         sodipodi:arc-type="arc"
         d="m 1267.1253,1246.0405 a 60.472443,60.472443 0 0 1 -59.6868,60.4674 60.472443,60.472443 0 0 1 -61.2377,-58.8961 60.472443,60.472443 0 0 1 58.0955,-61.9978 60.472443,60.472443 0 0 1 62.7473,57.2851" />
    </g>
    <path
       id="rect14"
       style="fill:url(#linearGradient4);stroke:#ff6600;stroke-width:22.6772;fill-opacity:1"
       d="m 1020.14,1335.241 c 58.9557,-46.3817 135.68,-49.2606 211.6535,0 0,0 -7.7402,203.8209 -80,257.0079 -13.8666,10.2065 -37.7869,10.2065 -51.6535,0 -72.2598,-53.187 -80,-257.0079 -80,-257.0079 z"
       sodipodi:nodetypes="ccssc" />
    <path
       id="path19"
       style="fill:#000000;stroke:#000000;stroke-width:30.8613"
       d="m 1114.3203,1118.5957 c -7.1039,0.076 -14.2069,0.1955 -21.3074,0.4378 -20.1602,0.6252 -40.2984,1.933 -60.3769,3.8505 -14.1572,1.3724 -28.285,3.0622 -42.36464,5.0655 -18.88616,2.7064 -37.69122,5.9778 -56.37687,9.8322 -19.64901,4.0542 -39.1632,8.7562 -58.50905,14.0723 -20.62,5.6912 -41.04685,12.08 -61.21747,19.2046 -15.68375,5.5244 -31.21106,11.495 -46.56418,17.8803 -18.67509,7.7836 -37.09783,16.1777 -55.19802,25.2188 -16.25247,8.1008 -32.25325,16.7043 -47.96577,25.8079 -15.41161,8.9151 -30.54422,18.3141 -45.37083,28.1709 -18.45408,12.2606 -36.42402,25.2517 -53.85989,38.923 -14.04227,11.0134 -27.72684,22.4795 -41.03299,34.3718 -9.07081,8.1322 -17.94795,16.3988 -26.63819,24.9226 -11.93283,11.6545 -23.49631,23.6865 -34.67193,36.0684 -15.37907,17.0265 -30.02425,34.716 -43.85677,53.0213 -9.64192,12.7417 -18.87327,25.7939 -27.71579,39.1028 -7.34022,11.0951 -14.40738,22.372 -21.17466,33.8258 -8.55296,14.5112 -16.64327,29.2948 -24.20383,44.3469 -9.12363,18.1289 -17.50702,36.6296 -25.11051,55.4463 -5.86966,14.517 -11.26704,29.2259 -16.19476,44.0894 -4.14167,12.5234 -7.95422,25.1559 -11.41379,37.8842 -4.68608,17.2799 -8.7452,34.7306 -12.13389,52.3105 -2.83422,14.6698 -5.19864,29.4297 -7.10635,44.2484 -1.79867,13.9714 -3.18806,28.0792 -4.14961,42.1653 -1.22701,17.9728 -1.7815,35.9929 -1.63625,54.0079 0.0943,13.6375 0.61426,27.2699 1.4905,40.879 0.99823,15.0167 2.43686,30.004 4.38642,44.9276 2.23536,17.3401 5.12706,34.5947 8.63736,51.7223 3.42211,16.6874 7.43339,33.2527 12.03069,49.6561 4.24942,15.1575 8.98909,30.1776 14.20913,45.0296 5.61334,15.9391 11.76431,31.6888 18.46122,47.2034 7.46498,17.3299 15.61331,34.3646 24.3728,51.078 8.03949,15.3102 16.59893,30.3477 25.66436,45.0736 9.74366,15.8324 20.07145,31.3035 30.93445,46.3897 11.37281,15.7748 23.32442,31.1346 35.84104,46.0185 10.3959,12.3925 21.19675,24.4442 32.31969,36.1874 11.85704,12.4543 24.08052,24.562 36.69628,36.2455 15.46953,14.3528 31.50147,28.1007 48.02574,41.225 14.79722,11.7523 29.98907,23.0079 45.54573,33.7336 18.52658,12.7989 37.57042,24.8443 57.04501,36.1474 10.13354,5.8779 20.41659,11.564 30.74801,17.0208 20.33508,10.7144 41.08272,20.6476 62.18587,29.7563 20.17173,8.7108 40.66528,16.6759 61.42117,23.8852 17.0707,5.9376 34.32395,11.3565 51.71873,16.2642 20.97357,5.9211 42.16081,11.0824 63.50148,15.5034 21.35106,4.413 42.85472,8.0828 64.4635,10.9811 23.18536,3.1224 46.48906,5.3627 69.84276,6.7292 21.0818,1.2407 42.2067,1.7587 63.3247,1.5674 24.5602,-0.2235 49.1119,-1.4136 73.5779,-3.5625 19.7351,-1.7389 39.4134,-4.1016 58.9979,-7.0899 17.7045,-2.7079 35.3352,-5.9126 52.8516,-9.6393 20.5849,-4.3713 41.022,-9.4489 61.2576,-15.2245 20.4886,-5.84 40.7684,-12.4017 60.7994,-19.6722 17.3326,-6.2858 34.4639,-13.0991 51.3654,-20.4446 19.0713,-8.2631 37.8413,-17.2203 56.2821,-26.8058 12.4991,-6.5112 24.8393,-13.3245 37.0186,-20.4159 14.5538,-8.5096 28.8736,-17.4169 42.9087,-26.7576 16.9387,-11.2694 33.4803,-23.1375 49.567,-35.5941 18.6288,-14.4252 36.6501,-29.6314 53.9821,-45.5921 15.7996,-14.5402 31.0233,-29.7091 45.6203,-45.4585 13.0953,-14.1493 25.7,-28.7567 37.7326,-43.8201 10.0857,-12.6001 19.7632,-25.5264 29.0524,-38.7251 7.6633,-10.9327 15.0613,-22.0514 22.1582,-33.36 8.5961,-13.7387 16.7721,-27.6918 24.474,-41.957 9.263,-17.0701 17.8253,-34.5179 25.7247,-52.2594 6.9379,-15.6343 13.3474,-31.5033 19.1863,-47.5812 4.6333,-12.7522 8.9029,-25.6362 12.8276,-38.6239 4.6534,-15.522 8.8296,-31.1896 12.4315,-46.9886 3.695,-16.0872 6.8181,-32.3047 9.3847,-48.6093 2.2215,-14.0697 4.0105,-28.2742 5.3861,-42.4774 1.7471,-18.196 2.7965,-36.4592 3.1488,-54.7359 0.06,-6.0568 0.2434,-12.1181 0.01,-18.1732 -0.2985,-10.5077 -0.5865,-21.1346 -0.9117,-31.6876 -0.1101,-5.5939 -0.5956,-11.1706 -0.9753,-16.7503 -1.228,-16.4137 -3.0421,-32.7824 -5.4049,-49.0708 -2.3031,-15.7746 -5.1083,-31.4783 -8.4624,-47.0639 -2.0099,-9.3577 -4.1893,-18.6779 -6.5835,-27.9449 -2.9892,-11.7489 -6.3534,-23.494 -9.9467,-35.1086 -4.1175,-13.197 -8.5888,-26.2838 -13.4483,-39.2257 -5.9047,-15.7968 -12.3742,-31.3804 -19.3566,-46.7303 -5.0215,-11.0295 -10.3137,-21.9458 -15.8536,-32.6999 -8.489,-16.4555 -17.5706,-32.6058 -27.2437,-48.395 -9.8188,-16.0397 -20.2315,-31.7152 -31.1991,-46.9919 -7.9711,-11.0942 -16.2253,-21.9856 -24.7692,-32.6448 -10.2411,-12.7986 -20.8908,-25.2693 -31.9074,-37.4082 -12.5865,-13.8487 -25.6426,-27.2719 -39.1595,-40.2144 -12.9618,-12.4318 -26.3472,-24.4162 -40.0931,-35.9745 -16.3104,-13.6841 -33.1325,-26.762 -50.4335,-39.1687 -11.8429,-8.5008 -23.908,-16.6919 -36.168,-24.5803 -11.819,-7.5895 -23.8212,-14.8919 -35.9889,-21.9077 -12.1257,-6.9686 -24.4082,-13.6613 -36.8446,-20.0591 -12.6635,-6.4903 -25.4761,-12.6892 -38.4281,-18.5836 -12.9443,-5.8679 -26.0258,-11.4308 -39.2237,-16.7038 -13.015,-5.1587 -26.1407,-10.0363 -39.3715,-14.6131 -13.2309,-4.5512 -26.5613,-8.8114 -39.9813,-12.7691 -13.6562,-4.0119 -27.3888,-7.7045 -41.2105,-11.0959 -21.8746,-5.3268 -43.937,-9.8887 -66.1395,-13.6162 -19.9923,-3.38 -40.0997,-6.0665 -60.2689,-8.1396 -19.5285,-1.978 -39.1195,-3.3586 -58.7347,-4.1162 -14.7733,-0.5692 -29.562,-0.7815 -44.3488,-0.6675 z" />
    <path
       style="fill:#1a1a1a;stroke:none;stroke-width:30.8613;stroke-dasharray:none"
       id="path5"
       sodipodi:type="arc"
       sodipodi:cx="1122.5197"
       sodipodi:cy="1897.3508"
       sodipodi:rx="850.39368"
       sodipodi:ry="774.80316"
       sodipodi:start="0"
       sodipodi:end="6.2312145"
       sodipodi:open="true"
       sodipodi:arc-type="arc"
       d="m 1972.9133,1897.3508 a 850.39368,774.80316 0 0 1 -839.345,774.7378 850.39368,774.80316 0 0 1 -861.15523,-754.6065 850.39368,774.80316 0 0 1 816.96823,-794.3459 850.39368,774.80316 0 0 1 882.3838,733.9656" />
    <path
       id="path20"
       style="fill:#000000;stroke:#000000;stroke-width:22.6772"
       d="m 1119.8203,771.97266 c -6.5361,0.0102 -13.0718,0.22553 -19.5998,0.5353 -13.981,0.68714 -28.0316,2.02432 -41.9275,4.01115 -20.5285,2.90844 -40.8545,7.22689 -60.81785,12.81891 -22.59986,6.33332 -44.7299,14.31937 -66.22177,23.74797 -26.98676,11.84972 -52.96764,25.95715 -77.74409,41.91167 -24.87612,16.01234 -48.55146,33.86873 -70.97413,53.16054 -36.95721,31.80514 -70.50678,67.46962 -100.81122,105.6389 -37.9643,47.8346 -70.87047,99.578 -99.31677,153.5858 -30.60374,58.1593 -56.06234,118.9693 -76.96244,181.2595 -20.00405,59.6457 -35.8403,120.6679 -47.84002,182.4165 -13.06338,67.2086 -21.57966,135.2883 -25.78476,203.6216 -3.93206,64.0402 -4.05353,128.3141 -0.40167,192.3706 3.04551,52.8901 8.65383,105.6358 16.95482,157.9601 12.25297,77.2129 30.30783,153.5481 54.76412,227.8178 20.57398,62.4343 45.69162,123.4217 75.93159,181.8095 23.97703,46.2419 51.17323,90.8578 81.9838,132.8728 33.5644,45.7842 71.46041,88.5103 113.9714,126.1863 25.74463,22.7964 53.18155,43.7094 82.2395,62.1112 22.02838,13.9482 44.98902,26.4381 68.74865,37.1827 16.3644,7.3862 33.10203,13.9468 50.15112,19.5789 21.36322,7.0486 43.21062,12.6411 65.35322,16.6222 18.2814,3.2831 36.7616,5.4851 55.3077,6.5242 17.9543,1.0296 36.0074,0.9754 53.9693,-0.1486 23.3728,-1.4557 46.6451,-4.7274 69.5323,-9.7166 23.698,-5.1538 47.0059,-12.1653 69.68,-20.7875 26.7214,-10.1754 52.5732,-22.6003 77.3342,-36.8944 22.8002,-13.1471 44.6672,-27.8888 65.573,-43.8716 22.473,-17.2127 43.8097,-35.8919 64.0223,-55.7055 21.3649,-20.9816 41.4757,-43.2322 60.3554,-66.4735 39.7129,-48.9152 74.0177,-102.0961 103.5549,-157.7157 25.5895,-48.2093 47.6064,-98.2863 66.4206,-149.5117 17.573,-47.8912 32.343,-96.7964 44.5261,-146.3294 13.7054,-55.8042 24.1317,-112.4038 31.4491,-169.3962 6.1287,-47.7626 10.0753,-95.8044 11.8801,-143.9255 0.7879,-20.89 1.1804,-41.7963 1.1357,-62.7015 -0.3225,-18.3204 -0.5869,-36.6425 -0.9672,-54.9616 -1.5196,-43.1281 -4.7232,-86.1973 -9.6965,-129.0646 -7.5704,-65.3394 -19.2039,-130.2195 -35.1332,-194.0422 -13.8933,-55.5436 -31.0369,-110.2943 -51.7778,-163.6684 -23.2107,-59.7027 -50.9071,-117.7209 -83.7018,-172.7684 -29.3221,-49.1823 -62.7364,-96.0103 -100.7205,-138.89355 -29.5823,-33.3934 -61.9564,-64.37364 -97.1645,-91.7972 -26.8885,-20.92393 -55.4293,-39.76178 -85.4731,-55.8476 -25.2921,-13.53085 -51.6371,-25.11688 -78.8054,-34.33399 -18.0895,-6.14461 -36.5383,-11.22946 -55.2264,-15.19626 -22.8258,-4.81835 -46.0099,-7.95529 -69.3033,-9.27606 -9.4782,-0.53232 -18.9738,-0.78922 -28.4672,-0.71658 z" />
    <path
       style="fill:url(#linearGradient3);fill-opacity:1;stroke:#999999;stroke-width:22.6772;stroke-dasharray:none"
       id="path6"
       sodipodi:type="arc"
       sodipodi:cx="1122.52"
       sodipodi:cy="1834.2043"
       sodipodi:rx="689.76379"
       sodipodi:ry="1058.2677"
       sodipodi:start="0"
       sodipodi:end="6.2312145"
       sodipodi:open="true"
       sodipodi:arc-type="arc"
       d="M 1812.2838,1834.2043 A 689.76379,1058.2677 0 0 1 1131.4817,2892.3827 689.76379,1058.2677 0 0 1 432.98909,1861.7008 689.76379,1058.2677 0 0 1 1095.6411,776.74045 689.76379,1058.2677 0 0 1 1811.3525,1779.2301" />
    <g
       id="g22"
       transform="translate(3.938766)"
       style="fill:#000000;stroke:#000000">
      <path
         id="path21"
         style="fill:#000000;stroke:#000000;stroke-width:6"
         d="m 1604.1864,2892.8984 a 213.8304,98.553497 0 0 1 -211.0523,98.5452 213.8304,98.553497 0 0 1 -216.5364,-95.9845 213.8304,98.553497 0 0 1 205.4257,-101.0393 213.8304,98.553497 0 0 1 221.8742,93.359" />
      <path
         id="path22"
         style="fill:#000000;stroke:#000000;stroke-width:6"
         d="m 1060.6369,2900.7759 a 213.8304,98.553497 0 0 1 -211.05223,98.5452 213.8304,98.553497 0 0 1 -216.53636,-95.9846 213.8304,98.553497 0 0 1 205.42562,-101.0393 213.8304,98.553497 0 0 1 221.87427,93.3591" />
    </g>
    <g
       id="g8"
       transform="translate(3.938766)">
      <path
         style="fill:url(#linearGradient10);fill-opacity:1;stroke:#ff6600;stroke-width:6;stroke-dasharray:none"
         id="path7"
         sodipodi:type="arc"
         sodipodi:cx="1390.356"
         sodipodi:cy="2892.8984"
         sodipodi:rx="213.8304"
         sodipodi:ry="98.553497"
         sodipodi:start="0"
         sodipodi:end="6.2312145"
         sodipodi:open="true"
         sodipodi:arc-type="arc"
         d="m 1604.1864,2892.8984 a 213.8304,98.553497 0 0 1 -211.0523,98.5452 213.8304,98.553497 0 0 1 -216.5364,-95.9845 213.8304,98.553497 0 0 1 205.4257,-101.0393 213.8304,98.553497 0 0 1 221.8742,93.359" />
      <path
         style="fill:url(#linearGradient11);fill-opacity:1;stroke:#ff6600;stroke-width:6;stroke-dasharray:none"
         id="path8"
         sodipodi:type="arc"
         sodipodi:cx="846.80652"
         sodipodi:cy="2900.7759"
         sodipodi:rx="213.8304"
         sodipodi:ry="98.553497"
         sodipodi:start="0"
         sodipodi:end="6.2312145"
         sodipodi:open="true"
         sodipodi:arc-type="arc"
         d="m 1060.6369,2900.7759 a 213.8304,98.553497 0 0 1 -211.05223,98.5452 213.8304,98.553497 0 0 1 -216.53636,-95.9846 213.8304,98.553497 0 0 1 205.42562,-101.0393 213.8304,98.553497 0 0 1 221.87427,93.3591" />
    </g>
    <path
       id="path23"
       style="fill:#000000;stroke:#000000;stroke-width:22.6772"
       d="m 1117.8574,1395.5996 c -7.7937,0.085 -15.5851,0.3855 -23.363,0.8858 -21.9214,1.4085 -43.7296,4.4996 -65.1954,9.1573 -20.2412,4.4111 -40.17669,10.2146 -59.63538,17.3213 -21.79064,7.9604 -42.98783,17.5294 -63.41585,28.5214 -21.07539,11.3295 -41.32639,24.1714 -60.66858,38.2533 -23.95264,17.4779 -46.50091,36.8636 -67.51893,57.7727 -27.37369,27.2153 -52.17665,56.9775 -74.40596,88.5238 -26.76052,37.98 -49.79517,78.5429 -69.2632,120.7153 -32.38038,70.2144 -54.91086,144.8387 -68.24658,220.9592 -13.25805,75.8446 -17.42127,153.2637 -12.59742,230.1044 3.84386,61.1725 13.39975,122.005 28.84175,181.3276 15.412,59.1582 36.69731,116.8453 64.22119,171.4554 22.0495,43.7467 48.1262,85.5122 78.3628,124.0783 20.91895,26.6771 43.84014,51.7999 68.71074,74.8436 21.61989,20.0088 44.71495,38.4443 69.18032,54.8613 24.48514,16.4281 50.33601,30.8422 77.30328,42.7784 20.50059,9.0762 41.63448,16.7334 63.22512,22.7806 10.3272,2.8924 20.7544,5.4298 31.2639,7.5705 13.6399,2.7993 27.5186,4.9695 41.4047,6.4517 21.2913,2.2914 42.7521,2.9946 64.1488,2.1321 20.6317,-0.8405 41.1994,-3.1634 61.5087,-6.8907 20.2139,-3.7344 40.1717,-8.8496 59.6938,-15.2862 24.0655,-7.9332 47.4703,-17.8415 69.9813,-29.4703 25.1247,-12.98 49.1362,-28.0865 71.8408,-44.9386 22.7576,-16.8873 44.2126,-35.5131 64.2776,-55.52 22.3435,-22.2643 42.9715,-46.2333 61.8748,-71.478 31.5877,-42.1738 58.3554,-87.8823 80.5336,-135.6573 29.9676,-64.6247 51.5738,-133.0266 65.3228,-202.8891 12.166,-61.8799 18.1939,-124.952 18.184,-188.0134 -0.1488,-10.343 -0.4081,-20.6844 -0.5879,-31.027 -0.09,-6.3071 -0.3417,-12.6092 -0.6761,-18.9076 -3.8204,-75.1019 -16.2072,-149.8141 -37.5209,-221.9473 -18.4553,-62.3863 -43.6253,-122.8672 -75.9517,-179.3637 -18.4202,-32.1447 -39.1433,-62.9927 -62.2665,-91.949 -22.2032,-27.8201 -46.6127,-53.9042 -73.1749,-77.6088 -23.3658,-20.8605 -48.4124,-39.8581 -74.953,-56.5034 -15.1574,-9.4935 -30.7994,-18.2129 -46.867,-26.0689 -22.1267,-10.7956 -45.0598,-19.9491 -68.5923,-27.1942 -19.6022,-6.0318 -39.6091,-10.7584 -59.8513,-14.0654 -20.6114,-3.3716 -41.4638,-5.2629 -62.3456,-5.6625 -4.2602,-0.072 -8.5218,-0.082 -12.7825,-0.053 z" />
    <path
       style="fill:url(#linearGradient8);stroke:#f9f9f9;stroke-width:22.6772;stroke-dasharray:none;fill-opacity:1"
       id="path12"
       sodipodi:type="arc"
       sodipodi:cx="1122.5199"
       sodipodi:cy="2146.0154"
       sodipodi:rx="566.92914"
       sodipodi:ry="746.45673"
       sodipodi:start="0"
       sodipodi:end="6.2312145"
       sodipodi:open="true"
       sodipodi:arc-type="arc"
       d="m 1689.449,2146.0154 a 566.92914,746.45673 0 0 1 -559.5634,746.3937 566.92914,746.45673 0 0 1 -574.10344,-726.9989 566.92914,746.45673 0 0 1 544.64554,-765.2846 566.92914,746.45673 0 0 1 588.2559,707.1133" />
    <path
       id="path24"
       style="fill:#000000;fill-opacity:1;stroke:#000000;stroke-width:22.6772;stroke-dasharray:none"
       d="m 1275.1035,1017.4492 c -8.8709,0.1385 -17.7298,0.9487 -26.4893,2.3536 -26.2188,4.1923 -51.5157,14.0196 -73.6938,28.6182 -20.1976,13.2568 -37.7944,30.451 -51.534,50.323 -0.34,0.3898 -0.682,1.4467 -1.0195,0.474 -15.8061,-23.0288 -36.8109,-42.4584 -61,-56.425 -24.6623,-14.3008 -52.6107,-22.8768 -81.04807,-24.8832 -27.70657,-2.0032 -55.83901,2.2486 -81.72322,12.3295 -20.14577,7.8157 -38.91677,19.139 -55.24656,33.2894 -19.66445,17.0387 -35.74977,38.1871 -46.88426,61.7055 -10.54653,22.1831 -16.67189,46.447 -17.95962,70.9741 -1.31858,24.9727 2.38942,50.1983 10.86416,73.7273 7.35439,20.505 18.31563,39.7026 32.19956,56.4873 14.20772,17.1649 31.47542,31.7854 50.75907,42.9512 22.93903,13.3122 48.71648,21.6964 75.09852,24.4194 24.31109,2.5652 49.10709,0.2142 72.54382,-6.7131 25.1515,-7.4202 48.7217,-20.1524 68.6918,-37.1512 12.8758,-10.9206 24.2554,-23.5964 33.7695,-37.5425 13.9381,20.4543 31.9365,38.1297 52.6667,51.6573 21.3711,13.9884 45.613,23.5683 70.7793,27.9419 20.9161,3.67 42.4543,3.7522 63.3962,0.2286 25.7871,-4.306 50.6504,-14.0514 72.4837,-28.4331 18.2296,-11.9602 34.3292,-27.1384 47.4046,-44.5822 14.3302,-19.16 24.996,-41.0554 31.1791,-64.1722 4.4887,-16.7336 6.6854,-34.0911 6.4203,-51.4164 -0.1085,-5.5431 -0.3461,-11.0864 -0.9397,-16.601 -2.5413,-25.1279 -10.2114,-49.718 -22.3929,-71.8415 -12.6909,-23.0972 -30.2898,-43.4772 -51.3003,-59.3874 -20.192,-15.3409 -43.5187,-26.5247 -68.1169,-32.6838 -15.1736,-3.818 -30.8233,-5.702 -46.4679,-5.6804 -0.8135,6e-4 -1.6269,0.024 -2.4403,0.033 z" />
    <path
       id="path15"
       style="fill:url(#linearGradient13);fill-opacity:1;stroke:#f9f9f9;stroke-width:22.6772;stroke-dasharray:none"
       d="m 959.73978,1021.5449 a 184.71252,184.71175 0 0 0 -177.45122,189.3692 184.71252,184.71175 0 0 0 187.05082,179.8984 184.71252,184.71175 0 0 0 153.09182,-85.668 184.71252,184.71175 0 0 0 158.0703,85.668 184.71252,184.71175 0 0 0 182.3125,-184.6973 l -0.25,-9.5957 a 184.71252,184.71175 0 0 0 -191.6602,-174.9746 184.71252,184.71175 0 0 0 -148.1894,85.4063 184.71252,184.71175 0 0 0 -162.97462,-85.4063 z" />
    <g
       id="g26"
       transform="translate(20.244022)"
       style="fill:#000000;stroke:#000000">
      <path
         id="path25"
         style="stroke-width:21.7604;fill:#000000;stroke:#000000"
         d="m 1058.3708,1246.0405 a 60.472443,60.472443 0 0 1 -59.68681,60.4674 60.472443,60.472443 0 0 1 -61.2377,-58.8961 60.472443,60.472443 0 0 1 58.09552,-61.9978 60.472443,60.472443 0 0 1 62.74729,57.2851" />
      <path
         id="path26"
         style="stroke-width:21.7604;fill:#000000;stroke:#000000"
         d="m 1267.1253,1246.0405 a 60.472443,60.472443 0 0 1 -59.6868,60.4674 60.472443,60.472443 0 0 1 -61.2377,-58.8961 60.472443,60.472443 0 0 1 58.0955,-61.9978 60.472443,60.472443 0 0 1 62.7473,57.2851" />
    </g>
    <g
       id="g17"
       transform="translate(20.244022)">
      <path
         style="fill:#000000;stroke:none;stroke-width:21.7604;stroke-dasharray:none"
         id="path16"
         sodipodi:type="arc"
         sodipodi:cx="997.89832"
         sodipodi:cy="1246.0405"
         sodipodi:rx="60.472443"
         sodipodi:ry="60.472443"
         sodipodi:start="0"
         sodipodi:end="6.2312145"
         sodipodi:open="true"
         sodipodi:arc-type="arc"
         d="m 1058.3708,1246.0405 a 60.472443,60.472443 0 0 1 -59.68681,60.4674 60.472443,60.472443 0 0 1 -61.2377,-58.8961 60.472443,60.472443 0 0 1 58.09552,-61.9978 60.472443,60.472443 0 0 1 62.74729,57.2851" />
      <path
         style="fill:#000000;stroke:none;stroke-width:21.7604;stroke-dasharray:none"
         id="path17"
         sodipodi:type="arc"
         sodipodi:cx="1206.6528"
         sodipodi:cy="1246.0405"
         sodipodi:rx="60.472443"
         sodipodi:ry="60.472443"
         sodipodi:start="0"
         sodipodi:end="6.2312145"
         sodipodi:open="true"
         sodipodi:arc-type="arc"
         d="m 1267.1253,1246.0405 a 60.472443,60.472443 0 0 1 -59.6868,60.4674 60.472443,60.472443 0 0 1 -61.2377,-58.8961 60.472443,60.472443 0 0 1 58.0955,-61.9978 60.472443,60.472443 0 0 1 62.7473,57.2851" />
    </g>
    <path
       id="path27"
       style="fill:#000000;fill-opacity:1;stroke:#000000;stroke-width:22.6772"
       d="m 1119.5723,1295.375 c -23.3588,0.1897 -46.6511,5.5331 -67.7676,15.5195 -12.7682,6.0125 -24.7369,13.6594 -35.7559,22.4649 0.9579,21.3102 2.9647,42.5647 5.6149,63.7277 3.7036,29.1585 8.8166,58.1753 16.2441,86.6285 5.2441,19.9146 11.6503,39.588 20.2801,58.3103 6.5897,14.2027 14.5057,27.9416 24.8534,39.7605 5.0739,5.7404 10.695,11.0741 17.113,15.2917 8.48,5.2188 18.6575,7.2012 28.5253,6.7494 8.6844,-0.4234 17.4479,-2.7941 24.6511,-7.7809 10.8925,-7.7801 19.6325,-18.1941 26.9175,-29.3387 9.5924,-14.7427 16.7865,-30.9097 22.7928,-47.4013 8.3001,-22.9733 14.2473,-46.7312 18.9778,-70.6746 6.096,-31.0803 10.1193,-62.547 12.5814,-94.1164 0.551,-7.1224 0.9937,-14.2527 1.2924,-21.3906 -22.6017,-14.8741 -47.4537,-26.68 -73.8646,-32.8962 -13.8931,-3.287 -28.1741,-4.9868 -42.4557,-4.8538 z" />
    <path
       id="path18"
       style="fill:url(#linearGradient4);stroke:#ff6600;stroke-width:22.6772;fill-opacity:1"
       d="m 1020.14,1335.241 c 58.9557,-46.3817 135.68,-49.2606 211.6535,0 0,0 -7.7402,203.8209 -80,257.0079 -13.8666,10.2065 -37.7869,10.2065 -51.6535,0 -72.2598,-53.187 -80,-257.0079 -80,-257.0079 z"
       sodipodi:nodetypes="ccssc" />
  </g>
</svg>
